Coordinates
version=1
nRows=4
nColumns=63
inDegrees=yes

Units are S.I. units (second, meters, Newtons, ...)
If the header above contains a line with 'inDegrees', this indicates whether rotational values are in degrees (yes) or radians (no).

endheader
time	pelvis_tilt	pelvis_list	pelvis_rotation	pelvis_tx	pelvis_ty	pelvis_tz	hip_flexion_r	hip_adduction_r	hip_rotation_r	knee_angle_r	knee_angle_r_beta	ankle_angle_r	subtalar_angle_r	mtp_angle_r	hip_flexion_l	hip_adduction_l	hip_rotation_l	knee_angle_l	knee_angle_l_beta	ankle_angle_l	subtalar_angle_l	mtp_angle_l	L5_S1_Flex_Ext	L5_S1_Lat_Bending	L5_S1_axial_rotation	L4_L5_Flex_Ext	L4_L5_Lat_Bending	L4_L5_axial_rotation	L3_L4_Flex_Ext	L3_L4_Lat_Bending	L3_L4_axial_rotation	L2_L3_Flex_Ext	L2_L3_Lat_Bending	L2_L3_axial_rotation	L1_L2_Flex_Ext	L1_L2_Lat_Bending	L1_L2_axial_rotation	L1_T12_Flex_Ext	L1_T12_Lat_Bending	L1_T12_axial_rotation	Abs_r3	Abs_r2	Abs_r1	Abs_t1	Abs_t2	neck_flexion	neck_bending	neck_rotation	arm_flex_r	arm_add_r	arm_rot_r	elbow_flex_r	pro_sup_r	wrist_flex_r	wrist_dev_r	arm_flex_l	arm_add_l	arm_rot_l	elbow_flex_l	pro_sup_l	wrist_flex_l	wrist_dev_l
      0.00000000	     -0.00748959	     -5.01187539	     96.52663950	      0.02114992	      0.84642380	      0.73213948	      9.81704868	     -2.77374129	      1.11816107	     16.18199566	      0.28242910	     36.27383399	     -4.50902260	      0.00000000	      9.47386660	      1.94176153	     -7.37373378	     12.86596378	      0.22455343	     39.94138799	     10.82655851	      0.00000000	      0.05468512	     -0.07347646	      0.96944033	      0.10155574	     -0.09772369	      1.03003035	      0.08984218	     -0.17865066	      1.03003035	      0.06249962	     -0.17865066	      0.84826029	      0.05078060	     -0.14983319	      0.78767027	      0.03124708	     -0.11381503	      0.72708025	      0.39061035	     -0.83118038	      5.39173630	      0.00000000	      0.00000000	     27.38664158	     -0.98393483	     -4.27282245	     11.22688091	     -5.13588968	     40.14078820	     40.15618006	     80.42537804	      7.87178219	     -2.69059798	     19.71449748	     -3.30712067	     65.43107827	     38.93838240	     57.55087384	      4.85121608	     -6.95604578
      0.01666667	      0.33413147	     -4.95739191	     96.35647819	      0.02059154	      0.84666625	      0.73156988	      9.58425853	     -2.48009154	      0.87401301	     15.60525932	      0.27236316	     36.39314229	     -4.83666618	      0.00000000	      9.26007616	      1.63795425	     -7.43203781	     12.59366913	      0.21980099	     39.99608771	     11.07426256	      0.00000000	      0.06469113	     -0.02358078	      0.98176773	      0.12013790	     -0.03136243	      1.04312821	      0.10628106	     -0.05733430	      1.04312821	      0.07393549	     -0.05733430	      0.85904676	      0.06007219	     -0.04808592	      0.79768628	      0.03696451	     -0.03652662	      0.73632580	      0.46208229	     -0.26675047	      5.46029758	      0.00000000	      0.00000000	     27.39039214	     -1.07760709	     -4.10319965	     10.92825632	     -5.80542827	     40.32755183	     41.27937522	     80.56149597	      7.97517260	     -2.60778108	     19.58006891	     -3.28851857	     65.33772003	     39.19301758	     56.86094284	      5.26055606	     -6.15294636
      0.03333333	      0.99618121	     -4.74241402	     96.62513861	      0.01992335	      0.84722720	      0.73129734	      9.03972644	     -1.63472838	      1.96373945	     14.72721868	      0.25703846	     35.74946487	     -7.25647241	      0.00000000	      9.16667768	      0.84041972	     -8.45294119	     12.79190799	      0.22326091	     40.40901835	     12.88090878	      0.00000000	      0.05487645	      0.06702181	      0.92992840	      0.10191105	      0.08913901	      0.98804893	      0.09015651	      0.16295683	      0.98804893	      0.06271829	      0.16295683	      0.81368735	      0.05095827	      0.13667087	      0.75556683	      0.03135640	      0.10381678	      0.69744630	      0.39197696	      0.75816411	      5.17198280	      0.00000000	      0.00000000	     27.34237391	     -1.45892669	     -3.68169131	     10.77558658	     -6.29021542	     40.25414326	     41.89891378	     81.04285647	      7.82531570	     -2.20050199	     19.77120952	     -3.04032799	     66.60182312	     39.26219303	     51.19210141	      5.02987609	     -4.70684852
      0.05000000	      1.26991227	     -4.70969935	     96.69070904	      0.01951818	      0.84748685	      0.73109842	      8.93087966	     -1.41911547	      1.60882987	     14.42022760	      0.25168045	     35.92934659	     -6.95000438	      0.00000000	      9.10978675	      0.59487744	     -8.38435959	     12.72616312	      0.22211345	     40.44245040	     13.02567747	      0.00000000	      0.05936659	      0.10339033	      0.91398219	      0.11024970	      0.13750914	      0.97110608	      0.09753338	      0.25138326	      0.97110608	      0.06785008	      0.25138326	      0.79973441	      0.05512782	      0.21083357	      0.74261053	      0.03392207	      0.16015163	      0.68548664	      0.42404964	      1.16957213	      5.08329474	      0.00000000	      0.00000000	     27.34143857	     -1.55061112	     -3.61208351	     10.62560355	     -6.52657841	     40.00137719	     42.23952121	     81.54479279	      8.09375891	     -2.15778057	     19.75177987	     -2.94538629	     66.71426219	     39.26659472	     50.42176900	      5.17439173	     -4.36839580
